<svg width="18" height="17" viewBox="0 0 18 17" fill="none" xmlns="http://www.w3.org/2000/svg">
<path d="M17.1172 15.5633C15.951 13.5543 14.0843 12.0465 11.875 11.3289C12.934 10.6992 13.7569 9.73921 14.2174 8.59644C14.6779 7.45367 14.7504 6.19132 14.4239 5.00333C14.0974 3.81533 13.3898 2.7674 12.4099 2.02053C11.4301 1.27365 10.2321 0.869141 9.00005 0.869141C7.76799 0.869141 6.57001 1.27365 5.59015 2.02053C4.61029 2.7674 3.90274 3.81533 3.57621 5.00333C3.24967 6.19132 3.32221 7.45367 3.78268 8.59644C4.24315 9.73921 5.06608 10.6992 6.12505 11.3289C3.91575 12.0465 2.04907 13.5543 0.882868 15.5633C0.833953 15.6342 0.800244 15.7146 0.783859 15.7992C0.767474 15.8838 0.768767 15.9709 0.787656 16.055C0.806546 16.1391 0.842624 16.2183 0.893623 16.2878C0.944622 16.3573 1.00944 16.4155 1.084 16.4587C1.15857 16.5019 1.24127 16.5293 1.3269 16.539C1.41254 16.5487 1.49926 16.5406 1.58162 16.5152C1.66398 16.4898 1.7402 16.4477 1.80549 16.3914C1.87078 16.3351 1.92372 16.266 1.96099 16.1883C2.67535 14.9539 3.70176 13.929 4.93724 13.2166C6.17273 12.5041 7.57385 12.1291 9.00005 12.1291C10.4262 12.1291 11.8274 12.5041 13.0628 13.2166C14.2983 13.929 15.3247 14.9539 16.0391 16.1883C16.0764 16.266 16.1293 16.3351 16.1946 16.3914C16.2599 16.4477 16.3361 16.4898 16.4185 16.5152C16.5008 16.5406 16.5876 16.5487 16.6732 16.539C16.7588 16.5293 16.8415 16.5019 16.9161 16.4587C16.9907 16.4155 17.0555 16.3573 17.1065 16.2878C17.1575 16.2183 17.1935 16.1391 17.2124 16.055C17.2313 15.9709 17.2326 15.8838 17.2162 15.7992C17.1998 15.7146 17.1661 15.6342 17.1172 15.5633ZM4.62505 6.50078C4.62505 5.63549 4.88164 4.78963 5.36237 4.07016C5.8431 3.3507 6.52638 2.78994 7.32581 2.45881C8.12523 2.12768 9.0049 2.04104 9.85357 2.20985C10.7022 2.37866 11.4818 2.79534 12.0936 3.40719C12.7055 4.01905 13.1222 4.7986 13.291 5.64726C13.4598 6.49593 13.3731 7.3756 13.042 8.17502C12.7109 8.97445 12.1501 9.65773 11.4307 10.1385C10.7112 10.6192 9.86534 10.8758 9.00005 10.8758C7.83973 10.8758 6.72693 10.4148 5.90646 9.59437C5.08599 8.7739 4.62505 7.6611 4.62505 6.50078Z" fill="#1D5CA0"/>
</svg>
