<svg width="20" height="22" viewBox="0 0 20 22" fill="none" xmlns="http://www.w3.org/2000/svg">
<path fill-rule="evenodd" clip-rule="evenodd" d="M16 5.49945C16 3.98145 15.3829 2.60425 14.3896 1.60985C13.3963 0.615451 12.018 -0.000549316 10.5 -0.000549316C8.982 -0.000549316 7.6048 0.616551 6.6104 1.60985C5.616 2.60315 5 3.98145 5 5.49945C5 7.01745 5.6171 8.39465 6.6104 9.38905C7.6037 10.3835 8.982 10.9995 10.5 10.9995C12.018 10.9995 13.3952 10.3824 14.3896 9.38905C15.384 8.39575 16 7.01745 16 5.49945ZM20 20.8745V18.6245C20 17.072 19.3767 15.6635 18.3733 14.6465C17.37 13.6295 15.9778 12.9995 14.4444 12.9995H5.55556C4.02222 12.9995 2.63111 13.6306 1.62667 14.6465C0.622222 15.6623 0 17.072 0 18.6245V20.8745C0 21.4955 0.497778 21.9995 1.11111 21.9995C1.72444 21.9995 2.22222 21.4955 2.22222 20.8745V18.6245C2.22222 17.6918 2.59444 16.8503 3.19889 16.2383C3.80333 15.6263 4.63444 15.2495 5.55556 15.2495H14.4444C15.3656 15.2495 16.1967 15.6263 16.8011 16.2383C17.4056 16.8503 17.7778 17.6918 17.7778 18.6245V20.8745C17.7778 21.4955 18.2756 21.9995 18.8889 21.9995C19.5022 21.9995 20 21.4955 20 20.8745ZM12.9747 7.97395C13.6093 7.33928 14.0002 6.46662 14.0002 5.49945C14.0002 4.53228 13.6093 3.65962 12.9747 3.02495C12.34 2.39028 11.4673 1.99945 10.5002 1.99945C9.53301 1.99945 8.66034 2.39028 8.02568 3.02495C7.39101 3.65962 7.00018 4.53228 7.00018 5.49945C7.00018 6.46662 7.39101 7.33928 8.02568 7.97395C8.66034 8.60862 9.53301 8.99945 10.5002 8.99945C11.4673 8.99945 12.34 8.60862 12.9747 7.97395Z" fill="#0C3159"/>
</svg>
