<svg width="22" height="22" viewBox="0 0 22 22" fill="none" xmlns="http://www.w3.org/2000/svg">
<path fill-rule="evenodd" clip-rule="evenodd" d="M17 5.49943C17 3.98143 16.3829 2.60423 15.3896 1.60983C14.3963 0.615428 13.018 -0.000572205 11.5 -0.000572205C9.982 -0.000572205 8.6048 0.616528 7.6104 1.60983C6.616 2.60313 6 3.98143 6 5.49943C6 7.01743 6.6171 8.39463 7.6104 9.38903C8.6037 10.3834 9.982 10.9994 11.5 10.9994C13.018 10.9994 14.3952 10.3823 15.3896 9.38903C16.384 8.39573 17 7.01743 17 5.49943ZM21 20.8744V18.6244C21 17.0719 20.3767 15.6634 19.3733 14.6464C18.37 13.6294 16.9778 12.9994 15.4444 12.9994H6.55556C5.02222 12.9994 3.63111 13.6306 2.62667 14.6464C1.62222 15.6623 1 17.0719 1 18.6244V20.8744C1 21.4954 1.49778 21.9994 2.11111 21.9994C2.72444 21.9994 3.22222 21.4954 3.22222 20.8744V18.6244C3.22222 17.6918 3.59444 16.8503 4.19889 16.2383C4.80333 15.6263 5.63444 15.2494 6.55556 15.2494H15.4444C16.3656 15.2494 17.1967 15.6263 17.8011 16.2383C18.4056 16.8503 18.7778 17.6918 18.7778 18.6244V20.8744C18.7778 21.4954 19.2756 21.9994 19.8889 21.9994C20.5022 21.9994 21 21.4954 21 20.8744ZM13.9747 7.97393C14.6093 7.33926 15.0002 6.46659 15.0002 5.49943C15.0002 4.53226 14.6093 3.65959 13.9747 3.02493C13.34 2.39026 12.4673 1.99943 11.5002 1.99943C10.533 1.99943 9.66034 2.39026 9.02568 3.02493C8.39101 3.65959 8.00018 4.53226 8.00018 5.49943C8.00018 6.46659 8.39101 7.33926 9.02568 7.97393C9.66034 8.60859 10.533 8.99943 11.5002 8.99943C12.4673 8.99943 13.34 8.60859 13.9747 7.97393Z" fill="white"/>
</svg>
