<svg width="20" height="22" viewBox="0 0 20 22" fill="none" xmlns="http://www.w3.org/2000/svg">
<path d="M17.6045 2.26254H15.2457V1.47307C15.2457 1.26369 15.1628 1.06288 15.0154 0.914825C14.8679 0.76677 14.6679 0.683594 14.4594 0.683594C14.2508 0.683594 14.0508 0.76677 13.9034 0.914825C13.7559 1.06288 13.6731 1.26369 13.6731 1.47307V2.26254H5.81018V1.47307C5.81018 1.26369 5.72734 1.06288 5.57988 0.914825C5.43243 0.76677 5.23243 0.683594 5.02389 0.683594C4.81536 0.683594 4.61536 0.76677 4.4679 0.914825C4.32044 1.06288 4.2376 1.26369 4.2376 1.47307V2.26254H1.87873C1.46166 2.26254 1.06167 2.42889 0.76675 2.725C0.471834 3.02111 0.306152 3.42273 0.306152 3.84149V19.631C0.306152 20.0497 0.471834 20.4513 0.76675 20.7474C1.06167 21.0436 1.46166 21.2099 1.87873 21.2099H17.6045C18.0216 21.2099 18.4216 21.0436 18.7165 20.7474C19.0114 20.4513 19.1771 20.0497 19.1771 19.631V3.84149C19.1771 3.42273 19.0114 3.02111 18.7165 2.725C18.4216 2.42889 18.0216 2.26254 17.6045 2.26254ZM4.2376 3.84149V4.63096C4.2376 4.84034 4.32044 5.04115 4.4679 5.18921C4.61536 5.33726 4.81536 5.42044 5.02389 5.42044C5.23243 5.42044 5.43243 5.33726 5.57988 5.18921C5.72734 5.04115 5.81018 4.84034 5.81018 4.63096V3.84149H13.6731V4.63096C13.6731 4.84034 13.7559 5.04115 13.9034 5.18921C14.0508 5.33726 14.2508 5.42044 14.4594 5.42044C14.6679 5.42044 14.8679 5.33726 15.0154 5.18921C15.1628 5.04115 15.2457 4.84034 15.2457 4.63096V3.84149H17.6045V6.99938H1.87873V3.84149H4.2376ZM17.6045 19.631H1.87873V8.57833H17.6045V19.631Z" fill="black"/>
</svg>
