<svg width="19" height="21" viewBox="0 0 19 21" fill="none" xmlns="http://www.w3.org/2000/svg">
<path d="M2.11111 20.9991H16.8889C18.0532 20.9991 19 20.0572 19 18.8991V7.34906C19 7.07058 18.8888 6.80351 18.6908 6.6066C18.4929 6.40969 18.2244 6.29906 17.9444 6.29906H14.7778V5.24906C14.7778 2.35421 12.4102 -0.000938416 9.5 -0.000938416C6.58983 -0.000938416 4.22222 2.35421 4.22222 5.24906V6.29906H1.05556C0.775605 6.29906 0.50712 6.40969 0.309165 6.6066C0.11121 6.80351 0 7.07058 0 7.34906V18.8991C0 20.0572 0.946833 20.9991 2.11111 20.9991ZM6.33333 5.24906C6.33333 3.51236 7.75411 2.09906 9.5 2.09906C11.2459 2.09906 12.6667 3.51236 12.6667 5.24906V6.29906H6.33333V5.24906ZM2.11111 8.39906H4.22222V10.4991H6.33333V8.39906H12.6667V10.4991H14.7778V8.39906H16.8889L16.891 18.8991H2.11111V8.39906Z" fill="white"/>
</svg>
