<svg width="19" height="21" viewBox="0 0 19 21" fill="none" xmlns="http://www.w3.org/2000/svg">
<path d="M2.11111 20.9991H16.8889C18.0532 20.9991 19 20.0572 19 18.8991V7.34908C19 7.07061 18.8888 6.80354 18.6908 6.60662C18.4929 6.40971 18.2244 6.29908 17.9444 6.29908H14.7778V5.24908C14.7778 2.35423 12.4102 -0.000915527 9.5 -0.000915527C6.58983 -0.000915527 4.22222 2.35423 4.22222 5.24908V6.29908H1.05556C0.775605 6.29908 0.50712 6.40971 0.309165 6.60662C0.11121 6.80354 0 7.07061 0 7.34908V18.8991C0 20.0572 0.946833 20.9991 2.11111 20.9991ZM6.33333 5.24908C6.33333 3.51238 7.75411 2.09908 9.5 2.09908C11.2459 2.09908 12.6667 3.51238 12.6667 5.24908V6.29908H6.33333V5.24908ZM2.11111 8.39908H4.22222V10.4991H6.33333V8.39908H12.6667V10.4991H14.7778V8.39908H16.8889L16.891 18.8991H2.11111V8.39908Z" fill="#0C3159"/>
</svg>
