<svg width="14" height="15" viewBox="0 0 14 15" fill="none" xmlns="http://www.w3.org/2000/svg">
<path d="M13.2699 2.30148H10.4199V1.73148C10.418 1.27854 10.2373 0.844685 9.91699 0.524404C9.59671 0.204122 9.16285 0.0233599 8.70991 0.0214844H5.28991C4.83697 0.0233599 4.40311 0.204122 4.08283 0.524404C3.76255 0.844685 3.58179 1.27854 3.57991 1.73148V2.30148H0.729912C0.578739 2.30148 0.433757 2.36154 0.326861 2.46843C0.219966 2.57533 0.159912 2.72031 0.159912 2.87148C0.159912 3.02266 0.219966 3.16764 0.326861 3.27454C0.433757 3.38143 0.578739 3.44148 0.729912 3.44148H1.29991V13.7015C1.29991 14.0038 1.42002 14.2938 1.63381 14.5076C1.8476 14.7214 2.13757 14.8415 2.43991 14.8415H11.5599C11.8623 14.8415 12.1522 14.7214 12.366 14.5076C12.5798 14.2938 12.6999 14.0038 12.6999 13.7015V3.44148H13.2699C13.4211 3.44148 13.5661 3.38143 13.673 3.27454C13.7799 3.16764 13.8399 3.02266 13.8399 2.87148C13.8399 2.72031 13.7799 2.57533 13.673 2.46843C13.5661 2.36154 13.4211 2.30148 13.2699 2.30148ZM4.71991 1.73148C4.71991 1.58031 4.77997 1.43533 4.88686 1.32843C4.99376 1.22154 5.13874 1.16148 5.28991 1.16148H8.70991C8.86108 1.16148 9.00607 1.22154 9.11296 1.32843C9.21986 1.43533 9.27991 1.58031 9.27991 1.73148V2.30148H4.71991V1.73148ZM11.5599 13.7015H2.43991V3.44148H11.5599V13.7015ZM5.85991 6.29148V10.8515C5.85991 11.0027 5.79986 11.1476 5.69296 11.2545C5.58607 11.3614 5.44109 11.4215 5.28991 11.4215C5.13874 11.4215 4.99376 11.3614 4.88686 11.2545C4.77997 11.1476 4.71991 11.0027 4.71991 10.8515V6.29148C4.71991 6.14031 4.77997 5.99533 4.88686 5.88843C4.99376 5.78154 5.13874 5.72148 5.28991 5.72148C5.44109 5.72148 5.58607 5.78154 5.69296 5.88843C5.79986 5.99533 5.85991 6.14031 5.85991 6.29148ZM9.27991 6.29148V10.8515C9.27991 11.0027 9.21986 11.1476 9.11296 11.2545C9.00607 11.3614 8.86108 11.4215 8.70991 11.4215C8.55874 11.4215 8.41376 11.3614 8.30686 11.2545C8.19996 11.1476 8.13991 11.0027 8.13991 10.8515V6.29148C8.13991 6.14031 8.19996 5.99533 8.30686 5.88843C8.41376 5.78154 8.55874 5.72148 8.70991 5.72148C8.86108 5.72148 9.00607 5.78154 9.11296 5.88843C9.21986 5.99533 9.27991 6.14031 9.27991 6.29148Z" fill="#DC7D66"/>
</svg>
