<svg width="17" height="10" viewBox="0 0 17 10" fill="none" xmlns="http://www.w3.org/2000/svg">
<path d="M0.267363 1.27163C0.270063 1.47041 0.346971 1.66101 0.482988 1.806L7.98299 9.306C8.12518 9.44684 8.31723 9.52585 8.51736 9.52585C8.7175 9.52585 8.90954 9.44684 9.05174 9.306L16.5517 1.806C16.6713 1.66028 16.7325 1.47528 16.7232 1.287C16.714 1.09871 16.635 0.920588 16.5017 0.787287C16.3684 0.653985 16.1903 0.575032 16.002 0.565785C15.8137 0.556537 15.6287 0.617657 15.483 0.737254L8.51736 7.71225L1.55174 0.737254C1.40954 0.596418 1.2175 0.51741 1.01736 0.51741C0.817227 0.51741 0.625183 0.596418 0.482988 0.737254C0.346971 0.882246 0.270063 1.07284 0.267363 1.27163V1.27163Z" fill="#414141"/>
</svg>
