<svg width="15" height="15" viewBox="0 0 15 15" fill="none" xmlns="http://www.w3.org/2000/svg">
<path d="M13.8399 4.34499L10.655 1.16011C10.5497 1.05369 10.4243 0.969213 10.2861 0.911559C10.1479 0.853904 9.99965 0.824219 9.84991 0.824219C9.70017 0.824219 9.55191 0.853904 9.41372 0.911559C9.27552 0.969213 9.15013 1.05369 9.04478 1.16011L0.494787 9.71011C0.388552 9.81554 0.304261 9.94097 0.246783 10.0792C0.189305 10.2174 0.159779 10.3656 0.159913 10.5152V13.7001C0.159913 14.0025 0.280019 14.2924 0.493811 14.5062C0.707602 14.72 0.997565 14.8401 1.29991 14.8401H4.48479C4.63445 14.8402 4.78267 14.8107 4.92086 14.7532C5.05905 14.6958 5.18448 14.6115 5.28991 14.5052L13.8399 5.95524C14.0514 5.74062 14.1699 5.45141 14.1699 5.15011C14.1699 4.84881 14.0514 4.55961 13.8399 4.34499ZM4.48479 13.7001H1.29991V10.5152L7.56991 4.24524L10.7548 7.43011L4.48479 13.7001ZM11.5599 6.62499L8.37504 3.44011L9.84991 1.96524L13.0348 5.15011L11.5599 6.62499Z" fill="#1D5CA0"/>
</svg>
