<svg width="18" height="12" viewBox="0 0 18 12" fill="none" xmlns="http://www.w3.org/2000/svg">
<path d="M17.5001 5.77278C17.4787 5.71578 16.8731 4.37628 15.5336 3.02966C13.7453 1.24841 11.4866 0.300781 9.00001 0.300781C6.51339 0.300781 4.25477 1.24841 2.4664 3.02966C1.1269 4.37628 0.52128 5.71578 0.499905 5.77278C0.468094 5.84458 0.45166 5.92225 0.45166 6.00078C0.45166 6.07931 0.468094 6.15698 0.499905 6.22878C0.52128 6.28578 1.1269 7.62528 2.4664 8.97191C4.25477 10.7532 6.51339 11.7008 9.00001 11.7008C11.4866 11.7008 13.7453 10.7532 15.5336 8.97191C16.8731 7.62528 17.4787 6.28578 17.5001 6.22878C17.5319 6.15698 17.5484 6.07931 17.5484 6.00078C17.5484 5.92225 17.5319 5.84458 17.5001 5.77278ZM9.00001 10.5608C6.80552 10.5608 4.8889 9.76278 3.30715 8.18816C2.65345 7.54436 2.0988 6.80723 1.66128 6.00078C2.09821 5.19182 2.65289 4.45225 3.30715 3.80628C4.8889 2.23878 6.80552 1.44078 9.00001 1.44078C11.1945 1.44078 13.1111 2.23878 14.6929 3.80628C15.3471 4.45225 15.9018 5.19182 16.3387 6.00078C15.8257 6.96266 13.5885 10.5608 9.00001 10.5608ZM9.00001 2.58078C8.3236 2.58078 7.66238 2.78136 7.09997 3.15716C6.53755 3.53295 6.0992 4.06708 5.84035 4.692C5.5815 5.31693 5.51377 6.00457 5.64573 6.66799C5.77769 7.33141 6.10342 7.94079 6.58171 8.41909C7.06001 8.89738 7.66939 9.22311 8.3328 9.35507C8.99622 9.48703 9.68386 9.4193 10.3088 9.16045C10.9337 8.9016 11.4678 8.46325 11.8436 7.90083C12.2194 7.33842 12.42 6.67719 12.42 6.00078C12.42 5.09374 12.0597 4.22385 11.4183 3.58248C10.7769 2.9411 9.90705 2.58078 9.00001 2.58078ZM9.00001 8.28078C8.54907 8.28078 8.10826 8.14706 7.73331 7.89653C7.35837 7.646 7.06614 7.28991 6.89357 6.8733C6.721 6.45668 6.67585 5.99825 6.76383 5.55598C6.8518 5.1137 7.06895 4.70744 7.38781 4.38858C7.70667 4.06971 8.11293 3.85256 8.55521 3.76459C8.99748 3.67662 9.45591 3.72177 9.87253 3.89434C10.2891 4.0669 10.6452 4.35914 10.8958 4.73408C11.1463 5.10903 11.28 5.54984 11.28 6.00078C11.2781 6.6049 11.0373 7.18373 10.6101 7.61091C10.183 8.03808 9.60413 8.2789 9.00001 8.28078Z" fill="#1D5CA0"/>
</svg>
