<svg width="20" height="20" viewBox="0 0 20 20" fill="none" xmlns="http://www.w3.org/2000/svg">
<path d="M19.7501 9.99996C19.7453 12.382 18.871 14.6804 17.2916 16.4636C15.7121 18.2467 13.536 19.392 11.172 19.6843C11.1192 19.6895 11.066 19.6837 11.0155 19.6673C10.9651 19.6509 10.9186 19.6243 10.879 19.5891C10.8394 19.5539 10.8075 19.5108 10.7853 19.4627C10.7631 19.4146 10.7511 19.3623 10.7501 19.3093V12.25H13.0001C13.1027 12.2502 13.2042 12.2293 13.2984 12.1887C13.3925 12.1481 13.4774 12.0887 13.5477 12.014C13.618 11.9393 13.6722 11.851 13.707 11.7545C13.7418 11.658 13.7565 11.5554 13.7501 11.4531C13.7335 11.2592 13.644 11.0787 13.4995 10.9482C13.3551 10.8177 13.1666 10.7469 12.972 10.75H10.7501V8.49996C10.7501 8.10214 10.9081 7.72061 11.1894 7.4393C11.4707 7.158 11.8523 6.99996 12.2501 6.99996H13.7501C13.8527 7.00016 13.9542 6.97932 14.0484 6.93874C14.1425 6.89815 14.2274 6.83867 14.2977 6.76399C14.368 6.6893 14.4222 6.60099 14.457 6.50451C14.4918 6.40804 14.5065 6.30545 14.5001 6.20309C14.4835 6.00915 14.394 5.82873 14.2495 5.69823C14.1051 5.56774 13.9166 5.49688 13.722 5.49996H12.2501C11.4544 5.49996 10.6914 5.81603 10.1288 6.37864C9.56616 6.94125 9.25009 7.70431 9.25009 8.49996V10.75H7.00009C6.89753 10.7498 6.79601 10.7706 6.70182 10.8112C6.60763 10.8518 6.52277 10.9113 6.45248 10.9859C6.38218 11.0606 6.32796 11.1489 6.29315 11.2454C6.25834 11.3419 6.24368 11.4445 6.25009 11.5468C6.26668 11.7408 6.35622 11.9212 6.50064 12.0517C6.64506 12.1822 6.8336 12.253 7.02822 12.25H9.25009V19.3093C9.25036 19.3619 9.23956 19.4139 9.21842 19.4621C9.19727 19.5102 9.16625 19.5533 9.12735 19.5887C9.08845 19.6241 9.04256 19.6508 8.99264 19.6673C8.94272 19.6838 8.8899 19.6896 8.83759 19.6843C3.88759 19.0843 0.0625933 14.7812 0.259468 9.63434C0.369984 7.09257 1.46964 4.69468 3.32372 2.9525C5.17779 1.21032 7.63941 0.261861 10.1831 0.309578C12.7269 0.357296 15.1512 1.39741 16.9386 3.2079C18.726 5.01839 19.735 7.45584 19.7501 9.99996Z" fill="#85A3C5"/>
</svg>
