<svg width="19" height="18" viewBox="0 0 19 18" fill="none" xmlns="http://www.w3.org/2000/svg">
<path d="M12.2844 9.53437L8.34687 13.4719C8.20291 13.6095 8.01166 13.6867 7.8125 13.6875C7.66378 13.6873 7.51849 13.6428 7.3951 13.5598C7.27171 13.4768 7.17578 13.3589 7.11951 13.2213C7.06324 13.0836 7.04917 12.9323 7.07908 12.7867C7.10899 12.641 7.18154 12.5075 7.2875 12.4031L9.94062 9.75H1.25C1.05109 9.75 0.860322 9.67098 0.71967 9.53033C0.579018 9.38968 0.5 9.19891 0.5 9C0.5 8.80109 0.579018 8.61032 0.71967 8.46967C0.860322 8.32902 1.05109 8.25 1.25 8.25H9.94062L7.2875 5.59687C7.14578 5.45639 7.06566 5.26536 7.06478 5.06581C7.0639 4.86626 7.14233 4.67454 7.28281 4.53281C7.42329 4.39109 7.61432 4.31097 7.81387 4.31009C8.01342 4.30921 8.20515 4.38764 8.34687 4.52813L12.2844 8.46563C12.4252 8.60782 12.5042 8.79986 12.5042 9C12.5042 9.20014 12.4252 9.39218 12.2844 9.53437V9.53437ZM17 0H11.75C11.5511 0 11.3603 0.0790178 11.2197 0.21967C11.079 0.360322 11 0.551088 11 0.75C11 0.948912 11.079 1.13968 11.2197 1.28033C11.3603 1.42098 11.5511 1.5 11.75 1.5H17V16.5H11.75C11.5511 16.5 11.3603 16.579 11.2197 16.7197C11.079 16.8603 11 17.0511 11 17.25C11 17.4489 11.079 17.6397 11.2197 17.7803C11.3603 17.921 11.5511 18 11.75 18H17C17.3978 18 17.7794 17.842 18.0607 17.5607C18.342 17.2794 18.5 16.8978 18.5 16.5V1.5C18.5 1.10218 18.342 0.720644 18.0607 0.43934C17.7794 0.158035 17.3978 0 17 0V0Z" fill="black"/>
</svg>
