<svg width="16" height="16" viewBox="0 0 16 16" fill="none" xmlns="http://www.w3.org/2000/svg">
<path d="M15.3203 8.44531L12.0391 11.7266C11.9191 11.8412 11.7597 11.9055 11.5938 11.9062C11.4698 11.906 11.3487 11.869 11.2459 11.7998C11.1431 11.7306 11.0632 11.6325 11.0163 11.5177C10.9694 11.403 10.9576 11.2769 10.9826 11.1555C11.0075 11.0341 11.0679 10.9229 11.1562 10.8359L13.3672 8.625H6.125C5.95924 8.625 5.80027 8.55915 5.68306 8.44194C5.56585 8.32473 5.5 8.16576 5.5 8C5.5 7.83424 5.56585 7.67527 5.68306 7.55806C5.80027 7.44085 5.95924 7.375 6.125 7.375H13.3672L11.1562 5.16406C11.0381 5.04699 10.9714 4.8878 10.9707 4.72151C10.9699 4.55522 11.0353 4.39545 11.1523 4.27734C11.2694 4.15924 11.4286 4.09248 11.5949 4.09174C11.7612 4.09101 11.921 4.15637 12.0391 4.27344L15.3203 7.55469C15.4377 7.67318 15.5035 7.83322 15.5035 8C15.5035 8.16678 15.4377 8.32682 15.3203 8.44531ZM6.125 14.25H1.75V1.75H6.125C6.29076 1.75 6.44973 1.68415 6.56694 1.56694C6.68415 1.44973 6.75 1.29076 6.75 1.125C6.75 0.95924 6.68415 0.800269 6.56694 0.683058C6.44973 0.565848 6.29076 0.5 6.125 0.5H1.75C1.41848 0.5 1.10054 0.631696 0.866116 0.866116C0.631696 1.10054 0.5 1.41848 0.5 1.75V14.25C0.5 14.5815 0.631696 14.8995 0.866116 15.1339C1.10054 15.3683 1.41848 15.5 1.75 15.5H6.125C6.29076 15.5 6.44973 15.4342 6.56694 15.3169C6.68415 15.1997 6.75 15.0408 6.75 14.875C6.75 14.7092 6.68415 14.5503 6.56694 14.4331C6.44973 14.3158 6.29076 14.25 6.125 14.25Z" fill="#0C3159"/>
</svg>
