<svg width="14" height="16" viewBox="0 0 14 16" fill="none" xmlns="http://www.w3.org/2000/svg">
<path d="M13.5781 4.54693L9.20312 0.171927C9.16139 0.126737 9.1106 0.0908551 9.05406 0.066624C8.99752 0.042393 8.93651 0.030357 8.875 0.0313016H1.375C1.08492 0.0313016 0.80672 0.146536 0.601602 0.351654C0.396484 0.556771 0.28125 0.834971 0.28125 1.12505V14.875C0.28125 15.1651 0.396484 15.4433 0.601602 15.6484C0.80672 15.8536 1.08492 15.9688 1.375 15.9688H12.625C12.9151 15.9688 13.1933 15.8536 13.3984 15.6484C13.6035 15.4433 13.7188 15.1651 13.7188 14.875V4.87505C13.7197 4.81355 13.7077 4.75253 13.6834 4.69599C13.6592 4.63945 13.6233 4.58866 13.5781 4.54693ZM9.34375 1.63286L12.1172 4.4063H9.34375V1.63286ZM12.625 15.0313H1.375C1.33356 15.0313 1.29382 15.0148 1.26451 14.9855C1.23521 14.9562 1.21875 14.9165 1.21875 14.875V1.12505C1.21875 1.08361 1.23521 1.04387 1.26451 1.01457C1.29382 0.985263 1.33356 0.968801 1.375 0.968801H8.40625V4.87505C8.40625 4.99937 8.45564 5.1186 8.54354 5.20651C8.63145 5.29441 8.75068 5.3438 8.875 5.3438H12.7812V14.875C12.7812 14.9165 12.7648 14.9562 12.7355 14.9855C12.7062 15.0148 12.6664 15.0313 12.625 15.0313ZM9.96875 8.62505C9.96875 8.74937 9.91936 8.8686 9.83146 8.95651C9.74355 9.04441 9.62432 9.0938 9.5 9.0938H4.5C4.37568 9.0938 4.25645 9.04441 4.16854 8.95651C4.08064 8.8686 4.03125 8.74937 4.03125 8.62505C4.03125 8.50073 4.08064 8.3815 4.16854 8.29359C4.25645 8.20569 4.37568 8.1563 4.5 8.1563H9.5C9.62432 8.1563 9.74355 8.20569 9.83146 8.29359C9.91936 8.3815 9.96875 8.50073 9.96875 8.62505ZM9.96875 11.125C9.96875 11.2494 9.91936 11.3686 9.83146 11.4565C9.74355 11.5444 9.62432 11.5938 9.5 11.5938H4.5C4.37568 11.5938 4.25645 11.5444 4.16854 11.4565C4.08064 11.3686 4.03125 11.2494 4.03125 11.125C4.03125 11.0007 4.08064 10.8815 4.16854 10.7936C4.25645 10.7057 4.37568 10.6563 4.5 10.6563H9.5C9.62432 10.6563 9.74355 10.7057 9.83146 10.7936C9.91936 10.8815 9.96875 11.0007 9.96875 11.125Z" fill="#0C3159"/>
</svg>
