<svg width="22" height="22" viewBox="0 0 22 22" fill="none" xmlns="http://www.w3.org/2000/svg">
<path fill-rule="evenodd" clip-rule="evenodd" d="M14.3905 13.5784H15.2939L21 19.296L19.2962 20.9998L13.5786 15.2937V14.3903L13.2699 14.0701C11.9663 15.1908 10.2739 15.8654 8.43282 15.8654C4.32762 15.8654 1 12.5378 1 8.43261C1 4.32741 4.32762 0.999794 8.43282 0.999794C12.538 0.999794 15.8656 4.32741 15.8656 8.43261C15.8656 10.2737 15.191 11.9661 14.0703 13.2697L14.3905 13.5784ZM3.28747 8.43264C3.28747 11.28 5.58592 13.5784 8.43326 13.5784C11.2806 13.5784 13.5791 11.28 13.5791 8.43264C13.5791 5.5853 11.2806 3.28684 8.43326 3.28684C5.58592 3.28684 3.28747 5.5853 3.28747 8.43264Z" fill="white"/>
</svg>
