<svg width="50" height="50" viewBox="0 0 50 50" fill="none" xmlns="http://www.w3.org/2000/svg">
<path d="M48.836 46.1641L38.6875 36.0391C42.2692 31.7748 44.0664 26.2924 43.7043 20.7353C43.3421 15.1782 40.8486 9.97545 36.7437 6.21214C32.6388 2.44883 27.2395 0.415544 21.6719 0.53634C16.1043 0.657136 10.7983 2.92269 6.8605 6.8605C2.92269 10.7983 0.657136 16.1043 0.53634 21.6719C0.415544 27.2395 2.44883 32.6388 6.21214 36.7437C9.97545 40.8486 15.1782 43.3421 20.7353 43.7043C26.2924 44.0664 31.7748 42.2692 36.0391 38.6875L46.1641 48.8359C46.5225 49.1825 47.0015 49.3762 47.5 49.3762C47.9985 49.3762 48.4776 49.1825 48.836 48.8359C49.188 48.4805 49.3856 48.0003 49.3856 47.5C49.3856 46.9997 49.188 46.5196 48.836 46.1641V46.1641ZM4.375 22.1875C4.375 18.6645 5.41968 15.2207 7.37695 12.2914C9.33421 9.36215 12.1161 7.07908 15.371 5.73089C18.6258 4.38271 22.2073 4.02996 25.6626 4.71726C29.1178 5.40456 32.2917 7.10104 34.7828 9.59216C37.274 12.0833 38.9704 15.2572 39.6577 18.7125C40.345 22.1677 39.9923 25.7492 38.6441 29.0041C37.2959 32.2589 35.0129 35.0408 32.0836 36.9981C29.1544 38.9553 25.7105 40 22.1875 40C17.4652 39.9938 12.9382 38.1151 9.59901 34.776C6.25986 31.4368 4.3812 26.9098 4.375 22.1875V22.1875Z" fill="white"/>
</svg>
