<svg width="17" height="10" viewBox="0 0 17 10" fill="none" xmlns="http://www.w3.org/2000/svg">
<path d="M16.7243 8.77161C16.7216 8.57283 16.6447 8.38223 16.5087 8.23724L9.00871 0.737238C8.86652 0.596402 8.67447 0.517394 8.47434 0.517394C8.2742 0.517394 8.08216 0.596402 7.93996 0.737239L0.439963 8.23724C0.320365 8.38296 0.259247 8.56796 0.268494 8.75625C0.277742 8.94454 0.356695 9.12266 0.489996 9.25596C0.623297 9.38926 0.801415 9.46821 0.989704 9.47746C1.17799 9.48671 1.36299 9.42559 1.50871 9.30599L8.47434 2.33099L15.44 9.30599C15.5822 9.44682 15.7742 9.52583 15.9743 9.52583C16.1745 9.52583 16.3665 9.44682 16.5087 9.30599C16.6447 9.16099 16.7216 8.9704 16.7243 8.77161V8.77161Z" fill="#414141"/>
</svg>
